HIERARCHY
ROOT ROOT
{
	OFFSET 0.000000 56.020000 -5.659234
	CHANNELS 6 Xposition Yposition Zposition Xrotation Yrotation Zrotation 
	JOINT C_spine0001_bind_JNT
	{
		OFFSET 0.000000 1.618999 0.000000
		CHANNELS 3 Xrotation Yrotation Zrotation
		JOINT C_spine0002_bind_JNT
		{
			OFFSET 0.000000 4.942001 0.000001
			CHANNELS 3 Xrotation Yrotation Zrotation
			JOINT C_spine0003_bind_JNT
			{
				OFFSET 0.000000 4.942001 -0.000000
				CHANNELS 3 Xrotation Yrotation Zrotation
				JOINT C_neck0001_bind_JNT
				{
					OFFSET 0.000000 17.026009 -0.000000
					CHANNELS 3 Xrotation Yrotation Zrotation
					JOINT C_neck0002_bind_JNT
					{
						OFFSET 0.000000 3.249985 0.000000
						CHANNELS 3 Xrotation Yrotation Zrotation
						JOINT C_head_bind_JNT
						{
							OFFSET 0.000000 5.278008 0.000000
							CHANNELS 3 Xrotation Yrotation Zrotation
							End Site
							{
								OFFSET 0.000000 0.000000 0.000000
							}
						}
					}
				}
				JOINT L_clavicle_bind_JNT
				{
					OFFSET 4.590000 12.067001 0.834000
					CHANNELS 3 Xrotation Yrotation Zrotation
					JOINT L_armUpper0001_bind_JNT
					{
						OFFSET 7.812635 0.512001 -3.452945
						CHANNELS 3 Xrotation Yrotation Zrotation
						JOINT L_armLower0001_bind_JNT
						{
							OFFSET 15.265892 -6.552116 -0.058157
							CHANNELS 3 Xrotation Yrotation Zrotation
							JOINT L_hand0001_bind_JNT
							{
								OFFSET 14.747667 -6.369995 5.049225
								CHANNELS 3 Xrotation Yrotation Zrotation
								End Site
								{
									OFFSET 0.000000 0.000000 0.000000
								}
							}
						}
					}
				}
				JOINT R_clavicle_bind_JNT
				{
					OFFSET -4.590000 12.067001 0.834000
					CHANNELS 3 Xrotation Yrotation Zrotation
					JOINT R_armUpper0001_bind_JNT
					{
						OFFSET -7.812635 0.512001 -3.452945
						CHANNELS 3 Xrotation Yrotation Zrotation
						JOINT R_armLower0001_bind_JNT
						{
							OFFSET -15.265890 -6.552124 -0.058160
							CHANNELS 3 Xrotation Yrotation Zrotation
							JOINT R_hand0001_bind_JNT
							{
								OFFSET -14.746784 -6.369629 5.048937
								CHANNELS 3 Xrotation Yrotation Zrotation
								End Site
								{
									OFFSET 0.000000 0.000000 0.000000
								}
							}
						}
					}
				}
			}
		}
	}
	JOINT C_pelvis0001_bind_JNT
	{
		OFFSET -0.000000 0.000000 0.000000
		CHANNELS 3 Xrotation Yrotation Zrotation
		JOINT L_legUpper0001_bind_JNT
		{
			OFFSET 6.599999 -6.027000 0.539000
			CHANNELS 3 Xrotation Yrotation Zrotation
			JOINT L_legLower0001_bind_JNT
			{
				OFFSET -0.140713 -19.187443 0.040261
				CHANNELS 3 Xrotation Yrotation Zrotation
				JOINT L_foot0001_bind_JNT
				{
					OFFSET -0.132215 -18.028637 -1.138370
					CHANNELS 3 Xrotation Yrotation Zrotation
					JOINT L_foot0002_bind_JNT
					{
						OFFSET 0.007014 -4.693133 9.886524
						CHANNELS 3 Xrotation Yrotation Zrotation
						End Site
						{
							OFFSET 0.000000 0.000000 0.000000
						}
					}
				}
			}
		}
		JOINT R_legUpper0001_bind_JNT
		{
			OFFSET -6.599999 -6.027000 0.539000
			CHANNELS 3 Xrotation Yrotation Zrotation
			JOINT R_legLower0001_bind_JNT
			{
				OFFSET 0.140710 -19.187164 0.040550
				CHANNELS 3 Xrotation Yrotation Zrotation
				JOINT R_foot0001_bind_JNT
				{
					OFFSET 0.132215 -18.028633 -1.138362
					CHANNELS 3 Xrotation Yrotation Zrotation
					JOINT R_foot0002_bind_JNT
					{
						OFFSET -0.007014 -4.693128 9.886505
						CHANNELS 3 Xrotation Yrotation Zrotation
						End Site
						{
							OFFSET 0.000000 0.000000 0.000000
						}
					}
				}
			}
		}
	}
}
MOTION
Frames: 14
Frame Time: 0.033333
0.000000 44.589424 0.000000 0.019685 -28.814808 0.009409 -7.429823 33.644634 -4.335992 8.240694 -3.595268 1.549850 3.044976 -1.587856 1.275330 -1.791270 -0.704429 -6.162868 4.289767 -21.430815 1.938205 32.593201 3.653307 8.420363 -4.750771 11.868497 1.742912 -1.738878 15.519548 -48.659782 -28.885176 -20.378420 -36.667549 9.806274 -47.318771 -8.583376 -4.720043 -18.202978 3.071251 -13.201611 -12.072100 38.426712 -58.484394 8.536487 25.220108 4.309175 32.148422 7.439880 -3.808652 33.167500 -4.822336 -0.376026 -0.878073 16.310997 39.770378 0.254914 -0.735681 -32.103661 1.790405 -11.564618 -2.911928 -0.984313 -0.200480 -16.060770 3.481940 -19.732136 12.312721 2.364992 -0.838796 17.496496 -7.059276 24.925508 -4.725858 -0.368968 2.630275 
0.263338 44.440994 -0.554182 0.052284 -27.101521 0.033464 -7.058866 31.109306 -5.380831 8.627449 -3.975629 1.810259 3.145232 -2.666783 1.214302 -2.751634 -0.444577 -6.639479 3.818289 -20.959866 2.285762 34.450363 3.846477 7.662382 -5.194428 11.840855 1.934183 -0.580556 15.098102 -49.331127 -29.740507 -18.828836 -35.962555 12.172402 -48.022030 -7.185572 -3.937407 -18.112167 2.904457 -13.065241 -11.423158 39.492565 -58.587139 6.834791 25.701244 8.216496 30.733227 5.178106 -2.649246 30.755890 -5.759273 -2.168997 -0.039904 16.201654 40.841904 -0.150168 -0.163739 -33.038570 3.390421 -11.978594 -2.001610 -0.813318 0.305766 -17.975992 2.943326 -21.689981 8.992150 2.201860 -0.321270 21.756292 -7.165370 25.540123 -4.605241 0.894450 1.559154 
0.480775 44.238232 -1.372144 0.033707 -27.433908 0.025409 -7.206277 30.511803 -5.678461 8.299270 -3.774850 1.872169 3.324944 -2.719649 0.777090 -2.449322 -0.163400 -6.843225 4.095933 -20.806366 2.549324 34.902386 4.623926 8.760034 -5.344133 11.611914 2.709407 -0.565235 15.630336 -49.791985 -29.372892 -17.644176 -35.114334 10.439771 -49.261684 -9.040435 -3.261516 -18.710539 3.573708 -12.958291 -10.760226 40.837021 -58.637497 5.211112 24.122051 8.107998 31.622080 4.988542 -3.612759 29.956211 -5.130396 -3.223103 -0.181124 15.514743 42.541252 -0.343699 -0.012610 -34.100937 2.964730 -11.280114 -0.657707 -0.489014 0.497048 -18.521864 3.359188 -21.385052 8.543816 2.805140 -0.836095 22.111057 -8.335603 25.287300 -3.940102 0.936240 1.344786 
0.687265 44.193478 -1.622337 0.031596 -27.718761 -0.002282 -7.534513 30.091784 -5.674502 8.666485 -3.923137 1.839069 3.381446 -2.673213 0.797945 -2.496257 -0.567527 -6.895286 3.856448 -20.084267 2.363540 35.010262 4.645374 8.909675 -5.078660 11.794057 2.462725 -0.441426 15.268957 -50.178211 -27.725037 -17.056116 -33.018734 9.527907 -49.244881 -9.726716 -3.388575 -18.856827 3.365551 -12.164103 -11.254495 41.432388 -58.607494 3.862637 23.417635 8.595540 32.358078 4.576141 -3.425782 29.318514 -5.348164 -3.291747 -0.350270 15.314572 42.401363 -0.190089 -0.169196 -34.103230 3.281485 -10.866534 -0.525409 -0.398381 0.041860 -18.931677 3.629711 -21.938372 7.181888 2.714975 -0.287822 22.332901 -8.907585 25.225468 -3.101794 0.956772 1.326908 
0.823830 44.295570 -2.134417 0.025050 -27.555763 0.012780 -7.714685 29.096745 -6.326100 8.794891 -4.148087 1.879002 3.527550 -2.832526 0.468322 -2.669535 -0.322491 -6.519412 4.101154 -19.567879 2.476399 35.405613 4.990806 8.933871 -5.422015 11.806060 2.826083 -0.210175 15.375964 -49.990566 -25.908747 -15.248808 -30.622807 8.649652 -49.273148 -11.491319 -3.000536 -18.925940 3.703564 -11.775867 -11.656880 42.138386 -57.800854 2.542059 22.662766 8.086084 32.849377 3.979043 -3.782435 28.079365 -5.554435 -3.493485 -0.524159 15.447339 42.654800 0.261392 -0.570465 -33.833138 3.448760 -10.839530 -0.427877 -0.552379 0.309391 -18.834879 3.502663 -21.647093 5.002224 3.034146 -0.364601 22.587137 -9.202488 24.953176 -2.146790 0.990244 1.420948 
0.883353 44.352058 -2.116112 0.032575 -28.063084 0.017820 -7.809435 29.002525 -6.660852 9.028901 -4.250581 1.885893 3.613611 -3.043289 0.635893 -2.795142 -0.172993 -6.445086 3.981610 -19.043329 2.406957 35.343033 5.117558 8.997284 -5.563084 12.169898 2.511240 0.225149 15.082886 -50.568928 -24.274736 -14.504395 -28.606150 7.963103 -48.669331 -13.112678 -2.944411 -19.247665 3.714061 -11.061284 -11.800497 42.746296 -57.524342 0.917832 22.162333 9.066730 33.278198 3.346653 -3.451669 27.830452 -6.113715 -3.334129 -0.587862 15.749762 41.905273 0.245687 -0.714960 -33.468472 3.931633 -10.625433 -0.463303 -0.456684 0.164763 -18.883030 3.119158 -21.628983 2.783636 3.510943 -0.282491 22.917608 -9.597924 25.130577 -1.785637 0.883680 1.594581 
0.828697 44.488846 -1.950480 0.038746 -28.381746 0.017981 -7.960275 28.572479 -6.819919 9.066682 -4.386189 1.711852 3.624336 -3.123335 0.477623 -2.872546 -0.006347 -6.207223 4.009026 -18.927324 2.355786 35.968513 5.147925 8.821217 -5.491654 12.286572 2.600107 0.282866 14.708950 -50.815285 -22.526941 -12.911111 -26.277056 7.258526 -47.494007 -14.976341 -2.804532 -19.484562 3.918780 -10.652323 -12.025038 43.129902 -56.674255 -0.953282 20.241615 8.857141 34.011738 3.554898 -3.397440 27.364941 -6.369275 -2.813871 -0.529063 16.194365 41.587879 0.554477 -1.182239 -33.344707 3.889933 -10.528785 -0.575436 -0.479260 0.227492 -18.910139 2.794323 -21.633469 0.724324 4.229129 0.036226 23.615267 -9.981793 25.135288 -1.893391 0.893695 1.630165 
0.671012 44.575184 -1.662602 0.024373 -28.624718 0.012696 -7.691442 28.264368 -7.342230 8.748067 -4.585015 1.750537 3.340976 -3.329241 0.312706 -2.891088 0.040201 -5.909338 4.035874 -18.594946 2.124220 36.111973 5.700323 8.679090 -5.372635 12.631511 2.708252 0.931471 14.464191 -51.161999 -21.057621 -12.311481 -24.782618 6.901793 -46.207577 -16.426186 -2.351815 -19.903246 3.962974 -10.332747 -12.494817 43.354511 -55.639568 -2.285213 18.548569 8.687845 34.518482 4.317324 -3.419740 27.003529 -6.508750 -1.851172 -0.363374 16.620302 40.416256 0.730093 -1.508440 -32.795887 3.871071 -10.700439 -0.798632 -0.397778 0.518243 -18.377802 2.695273 -21.311491 -1.066382 4.573823 -0.075883 23.604628 -10.443707 25.102854 -1.910882 1.066506 1.761336 
0.409709 44.612602 -1.214511 0.045875 -28.652779 0.032006 -7.717453 27.903206 -7.557413 8.643976 -4.756891 1.668912 3.150440 -3.551999 0.204384 -3.204574 0.154393 -5.756956 4.064773 -18.570000 1.883801 36.841297 5.286089 8.609514 -5.200161 12.727497 3.116077 1.092333 14.505105 -52.144894 -19.173088 -11.070066 -22.676521 6.865369 -45.534492 -17.588364 -2.511252 -19.921301 3.565389 -9.587945 -13.563190 44.030102 -54.466290 -3.746932 15.946478 8.205167 34.904953 5.444526 -3.318057 26.647898 -6.855266 -1.145810 0.169620 17.113129 39.917377 0.369748 -1.115813 -32.924606 4.303694 -10.915419 -0.900244 -0.371112 0.354723 -18.063885 2.227659 -20.977503 -3.269159 4.662896 0.233657 24.153975 -10.685741 24.146292 -1.763713 0.819287 1.733288 
0.035337 44.628345 -0.607865 0.025231 -29.199362 0.002049 -7.498103 28.102045 -7.775976 8.277107 -4.986969 1.569267 2.912541 -3.670553 0.289457 -3.480129 0.113725 -5.860302 4.183744 -18.419489 1.815907 36.839031 5.247350 8.467277 -5.284795 12.699116 3.330328 1.651551 14.638371 -52.915619 -17.490675 -9.677366 -20.725670 6.124960 -45.050110 -18.716612 -2.393145 -20.286926 3.301792 -8.979568 -14.464580 44.504616 -52.824238 -5.236887 12.845716 7.104442 34.967422 6.698461 -3.316499 27.009777 -7.023901 0.161043 0.333025 17.763287 38.692913 0.495813 -0.942347 -32.654613 4.393114 -11.482582 -1.290547 -0.410781 0.312294 -17.470766 2.062512 -20.580471 -5.067511 4.487225 0.249931 24.235001 -10.959803 23.834942 -1.591754 0.989181 1.575427 
-0.377404 44.731731 0.183915 0.041036 -29.414106 0.016681 -7.062369 28.170969 -8.110758 7.949285 -5.170929 1.567287 2.667276 -3.956969 0.294541 -4.089844 0.267550 -5.646562 4.353642 -18.685593 1.579278 36.859978 4.789736 8.468861 -5.532411 12.454885 3.682980 2.422926 15.303234 -53.600189 -15.915511 -7.983970 -18.977112 5.838257 -44.752594 -19.686895 -2.680818 -20.429380 2.634676 -8.176533 -15.718414 45.596951 -51.733253 -7.242248 9.071593 6.422933 35.047573 7.574551 -3.050750 27.232210 -7.537158 1.738726 0.815364 18.331228 37.485786 0.251272 -0.155487 -33.120918 4.944891 -12.232435 -1.511109 -0.308008 0.292059 -17.692026 1.797792 -20.056131 -6.561222 4.181542 0.308728 24.525707 -10.987645 22.639353 -1.369122 0.835452 1.867578 
-0.842205 44.740948 0.894504 0.024721 -29.747187 0.000071 -6.628201 28.362766 -8.102930 7.518371 -5.450759 1.375914 2.382476 -4.113081 0.240147 -4.616423 0.306244 -5.552417 4.390282 -18.739937 1.304563 37.154907 4.840781 8.478858 -5.736747 12.422847 4.089988 3.251225 15.983887 -54.033970 -14.349045 -6.040619 -17.277935 4.788787 -44.531612 -20.744806 -2.582788 -20.800402 2.589791 -7.182966 -16.800524 46.225300 -50.648617 -9.213829 5.892345 5.243452 34.865871 8.040377 -3.165754 27.640892 -7.498618 3.546548 1.033633 18.954432 35.769203 0.138283 -0.169471 -32.903648 5.445397 -12.710804 -1.386162 -0.508862 0.339334 -17.357052 1.787858 -19.546631 -7.386665 4.221230 0.268818 24.207037 -11.545103 22.529730 -0.716838 0.879807 1.944585 
-1.261791 44.734776 1.544131 0.043182 -29.946003 0.019665 -6.609647 28.775661 -7.912670 7.246095 -5.725290 1.288071 2.190840 -4.384825 0.252209 -5.224238 0.525548 -5.531916 4.488679 -19.367002 1.048206 37.276859 4.366371 8.420887 -5.977360 12.350412 4.260493 4.198396 16.648746 -54.254303 -12.786163 -3.358013 -14.936468 3.642360 -44.582512 -22.353359 -2.655027 -21.185318 2.127262 -6.173007 -18.024984 47.432194 -49.636757 -10.650293 2.233739 3.460351 33.713619 8.850579 -3.079316 27.871977 -7.447859 5.071063 1.360784 19.303288 34.082363 -0.442601 0.211266 -32.495731 5.728429 -13.096346 -1.638959 -0.545548 0.225438 -17.150053 1.663796 -19.012259 -8.590084 4.532565 0.201350 24.810061 -12.008039 22.002083 -0.505841 1.109112 1.823922 
-1.569566 44.722805 2.170260 0.045484 -30.161806 0.019543 -6.467185 28.906284 -7.670534 6.726737 -5.789364 1.220247 2.133247 -4.535737 0.185775 -5.595976 0.597651 -5.488481 4.660151 -19.421459 0.721288 36.777870 4.312359 8.390561 -6.094659 12.083171 4.357069 5.294563 17.915009 -54.165821 -11.420606 -1.317572 -13.673501 2.757753 -44.088371 -23.127388 -2.622648 -21.545391 2.156142 -4.728124 -19.863682 47.775524 -48.412163 -12.506215 0.547503 2.027931 32.637241 9.045387 -3.263197 28.269934 -7.004757 6.659049 1.528816 19.317404 32.684578 -0.695730 -0.262584 -32.460545 5.614540 -12.929517 -1.405744 -0.452666 0.206446 -16.740812 1.694579 -18.414488 -9.277344 4.626205 0.015361 24.610285 -12.454682 21.564863 -0.564133 0.960143 1.708871 
